<svg id="visual" viewBox="0 0 900 600" width="900" height="600" xmlns="http://www.w3.org/2000/svg" xmlns:xlink="http://www.w3.org/1999/xlink" version="1.1"><rect x="0" y="0" width="900" height="600" fill="#778c9b"></rect><defs><linearGradient id="grad1_0" x1="33.3%" y1="0%" x2="100%" y2="100%"><stop offset="20%" stop-color="#778c9b" stop-opacity="1"></stop><stop offset="80%" stop-color="#778c9b" stop-opacity="1"></stop></linearGradient></defs><defs><linearGradient id="grad2_0" x1="0%" y1="0%" x2="66.7%" y2="100%"><stop offset="20%" stop-color="#778c9b" stop-opacity="1"></stop><stop offset="80%" stop-color="#778c9b" stop-opacity="1"></stop></linearGradient></defs><g transform="translate(900, 0)"><path d="M0 486.7C-61.5 478.9 -123.1 471.1 -186.3 449.7C-249.5 428.3 -314.3 393.5 -339.4 339.4C-364.5 285.3 -349.8 212.1 -367.7 152.3C-385.6 92.5 -436.2 46.3 -486.7 0L0 0Z" fill="#e0dbd5"></path></g><g transform="translate(0, 600)"><path d="M0 -486.7C65.3 -482.6 130.5 -478.4 186.3 -449.7C242 -421 288.2 -367.7 314 -314C339.7 -260.2 345.1 -205.9 370.5 -153.5C395.9 -101 441.3 -50.5 486.7 0L0 0Z" fill="#e0dbd5"></path></g></svg>