<svg id="visual" viewBox="0 0 900 600" width="900" height="600" xmlns="http://www.w3.org/2000/svg" xmlns:xlink="http://www.w3.org/1999/xlink" version="1.1"><path d="M0 109L82 187L164 139L245 163L327 217L409 103L491 109L573 139L655 151L736 169L818 205L900 109L900 0L818 0L736 0L655 0L573 0L491 0L409 0L327 0L245 0L164 0L82 0L0 0Z" fill="#050025"></path><path d="M0 151L82 253L164 235L245 223L327 277L409 139L491 151L573 235L655 217L736 271L818 307L900 169L900 107L818 203L736 167L655 149L573 137L491 107L409 101L327 215L245 161L164 137L82 185L0 107Z" fill="#451545"></path><path d="M0 265L82 397L164 391L245 337L327 397L409 283L491 289L573 343L655 337L736 427L818 409L900 301L900 167L818 305L736 269L655 215L573 233L491 149L409 137L327 275L245 221L164 233L82 251L0 149Z" fill="#8c1c4d"></path><path d="M0 481L82 517L164 541L245 481L327 553L409 511L491 481L573 499L655 553L736 559L818 517L900 535L900 299L818 407L736 425L655 335L573 341L491 287L409 281L327 395L245 335L164 389L82 395L0 263Z" fill="#c63f3b"></path><path d="M0 601L82 601L164 601L245 601L327 601L409 601L491 601L573 601L655 601L736 601L818 601L900 601L900 533L818 515L736 557L655 551L573 497L491 479L409 509L327 551L245 479L164 539L82 515L0 479Z" fill="#e17c03"></path></svg>